<?xml version="1.0" standalone="no"?>
<!DOCTYPE svg PUBLIC "-//W3C//DTD SVG 20010904//EN"
 "http://www.w3.org/TR/2001/REC-SVG-20010904/DTD/svg10.dtd">
<svg version="1.0" xmlns="http://www.w3.org/2000/svg"
 width="278.000000pt" height="278.000000pt" viewBox="0 0 278.000000 278.000000"
 preserveAspectRatio="xMidYMid meet">
<metadata>
Created by potrace 1.11, written by Peter Selinger 2001-2013
</metadata>
<g transform="translate(0.000000,278.000000) scale(0.100000,-0.100000)"
fill="#000000" stroke="none">
<path d="M200 1926 l0 -674 -22 6 c-13 3 -56 38 -95 78 -44 44 -73 67 -73 57
0 -9 15 -48 34 -87 36 -73 78 -124 128 -153 l28 -17 0 -478 c0 -448 1 -478 18
-479 22 -1 2373 -1 2390 0 9 1 12 151 12 715 l0 713 48 44 c26 24 63 56 82 71
34 26 34 27 10 27 -14 0 -51 -10 -82 -23 l-58 -24 0 449 0 449 -1210 0 -1210
0 0 -674z m2410 217 l-1 -448 -49 -34 c-96 -64 -183 -173 -270 -336 -140 -263
-180 -316 -250 -335 -76 -21 -115 8 -132 98 -9 51 -12 255 -4 312 3 19 8 58
11 85 17 150 96 438 147 540 60 118 180 254 283 323 l50 34 -74 -7 c-204 -17
-355 -66 -531 -171 -185 -109 -285 -228 -476 -564 -127 -222 -195 -329 -240
-373 -26 -27 -29 -27 -41 -11 -11 15 -15 71 -15 204 -1 112 34 257 94 398 36
84 39 95 25 109 -59 59 -311 -64 -423 -206 -24 -31 -86 -117 -137 -191 -115
-167 -198 -257 -271 -293 -30 -15 -64 -27 -75 -27 l-21 0 0 670 0 670 1200 0
1200 0 0 -447z m-880 -444 c0 -17 -11 -74 -24 -127 -14 -53 -27 -117 -31 -142
-3 -25 -8 -52 -10 -60 -2 -8 -6 -37 -10 -65 -3 -27 -8 -66 -10 -85 -3 -19 -6
-87 -6 -150 -3 -314 75 -453 255 -451 110 1 212 46 296 131 53 52 60 66 139
265 46 116 109 260 139 320 53 108 131 245 138 245 2 0 4 -313 4 -695 l0 -695
-1200 0 -1200 0 0 468 0 467 58 -2 c113 -3 207 57 324 205 78 100 179 202 206
209 15 3 27 1 32 -7 4 -7 6 -130 4 -274 -5 -301 0 -336 56 -374 45 -31 121
-27 200 10 112 51 168 127 299 402 77 162 150 279 232 369 73 82 109 94 109
36z"/>
</g>
</svg>
